<svg xmlns="http://www.w3.org/2000/svg" xmlns:xlink="http://www.w3.org/1999/xlink" width="500" zoomAndPan="magnify" viewBox="0 0 375 374.999991" height="500" preserveAspectRatio="xMidYMid meet" version="1.0"><defs><g/><clipPath id="2bda443310"><path d="M 38.148438 8 L 367 8 L 367 367 L 38.148438 367 Z M 38.148438 8 " clip-rule="nonzero"/></clipPath></defs><g clip-path="url(#2bda443310)"><path fill="#188ee9" d="M 342.851562 146.324219 L 108.5625 14.535156 C 77.078125 -3.175781 38.171875 19.578125 38.171875 55.703125 L 38.171875 319.277344 C 38.171875 355.40625 77.078125 378.15625 108.5625 360.445312 L 342.851562 228.660156 C 374.953125 210.601562 374.953125 164.382812 342.851562 146.324219 Z M 342.851562 146.324219 " fill-opacity="1" fill-rule="nonzero"/></g><g fill="#ffffff" fill-opacity="1"><g transform="translate(46.261357, 274.762122)"><g><path d="M 208.203125 0 L 163.09375 0 L 146.765625 -50.015625 L 63.65625 -50.015625 L 47.34375 0 L 3.265625 0 L 78.203125 -216.953125 L 133.265625 -216.953125 Z M 103.140625 -171.703125 L 75.234375 -86.078125 L 134.890625 -86.078125 L 106.84375 -171.703125 Z M 103.140625 -171.703125 "/></g></g></g></svg>